<svg width="20" height="20" viewBox="0 0 20 20" fill="none" xmlns="http://www.w3.org/2000/svg">
<path d="M10 0C4.47656 0 0 4.47656 0 10C0 15.5234 4.47656 20 10 20C15.5234 20 20 15.5234 20 10C20 4.47656 15.5234 0 10 0ZM11.7266 15.0195C11.7266 15.9727 10.9531 16.7461 10 16.7461C9.04688 16.7461 8.27344 15.9727 8.27344 15.0195C8.27344 14.0664 9.04688 13.293 10 13.293C10.9531 13.293 11.7266 14.0664 11.7266 15.0195ZM11.7266 10.8086C11.6914 11.7344 10.9297 12.4688 10 12.4688C9.07031 12.4688 8.30859 11.7344 8.27344 10.8086L8.04688 5.05469C8.00781 4.10156 8.75 3.29688 9.70703 3.25781H10.2305C11.1836 3.25781 11.9609 4.03125 11.9609 4.98828V5.05469L11.7266 10.8086Z" fill="#FF1010"/>
</svg>
