<svg width="12" height="20" viewBox="0 0 12 20" fill="none" xmlns="http://www.w3.org/2000/svg">
<path d="M9.53932 0.19977L0.200472 9.53925C0.0668943 9.67269 0 9.8262 0 9.99986C0 10.1735 0.0668943 10.3273 0.200472 10.4608L9.53932 19.7995C9.67311 19.9333 9.82662 20 10.0003 20C10.174 20 10.3277 19.9331 10.4612 19.7995L11.463 18.7977C11.5965 18.6642 11.6633 18.5104 11.6633 18.3368C11.6633 18.1631 11.5965 18.0094 11.463 17.8758L3.58715 9.99986L11.4635 2.12362C11.597 1.99012 11.6634 1.83632 11.6634 1.66295C11.6634 1.48901 11.5966 1.33529 11.4635 1.20178L10.4613 0.199841C10.3278 0.0663338 10.174 0 10.0004 0C9.82662 -7.05719e-05 9.6729 0.0662632 9.53932 0.19977Z" fill="#129C20"/>
</svg>
