<svg width="30" height="30" viewBox="0 0 30 30" fill="none" xmlns="http://www.w3.org/2000/svg">
<path d="M19.1355 1.50171L14.9998 5.63749L10.8641 1.50177C6.43096 2.86894 2.86863 6.43126 1.50146 10.8644L5.63719 15.0001L1.50146 19.1359C2.86852 23.5689 6.43072 27.1311 10.8637 28.4984L14.9998 24.3628L19.1355 28.4985C23.5687 27.1313 27.131 23.569 28.4982 19.1359L24.3625 15.0001L28.4982 10.8644C27.131 6.4312 23.5688 2.86894 19.1355 1.50171Z" fill="#E1E4FB"/>
<path d="M5.63725 15L1.50152 19.1357C2.86857 23.5688 6.43078 27.131 10.8638 28.4982L14.9999 24.3626L19.1356 28.4984C21.3522 27.8147 23.3364 26.5384 24.9373 24.9374L5.06238 5.0625C3.46143 6.66346 2.18514 8.64768 1.50146 10.8642L5.63725 15Z" fill="#C5C9F7"/>
<path d="M0.810487 10.173C0.287479 11.7082 1.75795 15 1.75795 15C1.75795 15 0.287479 18.2917 0.810487 19.827L5.6375 15L0.810487 10.173Z" fill="#A8AFF1"/>
<path d="M29.1896 19.827C29.7126 18.2917 28.2421 15 28.2421 15C28.2421 15 29.7126 11.7082 29.1896 10.173L24.3625 15L29.1896 19.827Z" fill="#C5C9F7"/>
<path d="M19.827 29.1896L15 24.3625L10.1726 29.1894C11.708 29.7127 15 28.2421 15 28.2421C15 28.2421 18.2918 29.7126 19.827 29.1896Z" fill="#A8AFF1"/>
<path d="M14.9999 5.63725L19.8269 0.810243C18.2916 0.287235 14.9999 1.7577 14.9999 1.7577C14.9999 1.7577 11.7081 0.287235 10.1729 0.810243L14.9999 5.63725Z" fill="#C5C9F7"/>
<path d="M15 0C6.74813 0 0 6.74801 0 15C0 23.2519 6.74813 30 15 30C23.2519 30 30 23.2519 30 15C30 6.74801 23.2519 0 15 0ZM15 28.2422C7.73016 28.2422 1.75781 22.2698 1.75781 15C1.75781 7.73016 7.73016 1.75781 15 1.75781C22.2698 1.75781 28.2422 7.73016 28.2422 15C28.2422 22.2698 22.2698 28.2422 15 28.2422Z" fill="#00479B"/>
<path d="M15 28.2421C7.73016 28.2421 1.75781 22.2698 1.75781 14.9999C1.75781 11.365 3.29484 8.06909 5.68201 5.68192L4.4349 4.43481C1.73098 7.13856 0 10.8739 0 14.9999C0 23.2518 6.74824 29.9999 15 29.9999C19.1259 29.9999 22.8612 28.2689 25.5651 25.565L24.318 24.3179C21.9308 26.7051 18.6349 28.2421 15 28.2421Z" fill="#002C6D"/>
<path d="M22.8886 22.8888L18.155 11.845L11.8447 18.1553L22.8886 22.8888Z" fill="#7986E8"/>
<path d="M11.8447 18.1552L22.8886 22.8887L14.9999 15L11.8447 18.1552Z" fill="#4C5CE1"/>
<path d="M7.11133 7.11133L11.8449 18.1552L18.1552 11.8449L7.11133 7.11133Z" fill="#FF3333"/>
<path d="M15 15L7.11133 7.11133L11.8449 18.1552L15 15Z" fill="#CC0202"/>
</svg>
