<svg width="50" height="58" viewBox="0 0 50 58" fill="none" xmlns="http://www.w3.org/2000/svg">
<path d="M11.5385 0C6.29231 0 0 2.85769 0 10.5615V46.1538C0 46.1538 0 50 3.84615 50V53.8461C3.84615 53.8461 3.84615 57.6923 7.69231 57.6923C11.5385 57.6923 11.5385 53.8461 11.5385 53.8461V50H38.4615V53.8461C38.4615 53.8461 38.4615 57.6923 42.3077 57.6923C46.1538 57.6923 46.1538 53.8461 46.1538 53.8461V50C46.1538 50 50 50 50 46.1538V10.5615C50 2.69615 45.2462 0 40 0H11.5385ZM12.5 5.76923H37.5C37.755 5.76923 37.9996 5.87053 38.1799 6.05086C38.3602 6.23118 38.4615 6.47575 38.4615 6.73077C38.4615 6.98578 38.3602 7.23036 38.1799 7.41068C37.9996 7.591 37.755 7.69231 37.5 7.69231H12.5C12.245 7.69231 12.0004 7.591 11.8201 7.41068C11.6398 7.23036 11.5385 6.98578 11.5385 6.73077C11.5385 6.47575 11.6398 6.23118 11.8201 6.05086C12.0004 5.87053 12.245 5.76923 12.5 5.76923ZM7.69231 11.5385H42.3077C46.1538 11.5385 46.1538 15.2577 46.1538 15.2577V26.9231C46.1538 26.9231 46.1538 30.7692 42.3077 30.7692H7.69231C3.84615 30.7692 3.84615 26.9231 3.84615 26.9231V15.3846C3.84615 15.3846 3.84615 11.5385 7.69231 11.5385ZM7.69231 38.4615C8.71237 38.4615 9.69066 38.8668 10.4119 39.588C11.1332 40.3093 11.5385 41.2876 11.5385 42.3077C11.5385 43.3278 11.1332 44.306 10.4119 45.0273C9.69066 45.7486 8.71237 46.1538 7.69231 46.1538C6.67224 46.1538 5.69396 45.7486 4.97267 45.0273C4.25137 44.306 3.84615 43.3278 3.84615 42.3077C3.84615 41.2876 4.25137 40.3093 4.97267 39.588C5.69396 38.8668 6.67224 38.4615 7.69231 38.4615ZM42.3077 38.4615C43.3278 38.4615 44.306 38.8668 45.0273 39.588C45.7486 40.3093 46.1538 41.2876 46.1538 42.3077C46.1538 43.3278 45.7486 44.306 45.0273 45.0273C44.306 45.7486 43.3278 46.1538 42.3077 46.1538C41.2876 46.1538 40.3093 45.7486 39.5881 45.0273C38.8668 44.306 38.4615 43.3278 38.4615 42.3077C38.4615 41.2876 38.8668 40.3093 39.5881 39.588C40.3093 38.8668 41.2876 38.4615 42.3077 38.4615Z" fill="#129C20"/>
</svg>
