<svg width="50" height="39" viewBox="0 0 50 39" fill="none" xmlns="http://www.w3.org/2000/svg">
<path d="M46.3558 5.19773H33.1206L30.4481 0.707924C30.3196 0.492151 30.1373 0.313457 29.919 0.189356C29.7006 0.0652545 29.4538 4.60348e-06 29.2027 1.50015e-09H20.7971C20.546 -1.14231e-05 20.2992 0.0652319 20.0809 0.189335C19.8626 0.313437 19.6802 0.49214 19.5518 0.707924L16.8792 5.19773H12.5362V4.20817C12.5362 3.82382 12.3835 3.45521 12.1117 3.18343C11.8399 2.91165 11.4713 2.75897 11.087 2.75897H5.72473C5.34038 2.75897 4.97177 2.91165 4.69999 3.18343C4.42821 3.45521 4.27553 3.82382 4.27553 4.20817V5.19773H3.64424C1.63143 5.19773 0 6.82933 0 8.84181V35.2268C0 37.2395 1.63143 38.8711 3.64408 38.8711H46.3558C48.3684 38.8711 50 37.2395 50 35.2268V8.84181C50.0002 6.82933 48.3684 5.19773 46.3558 5.19773ZM24.9999 32.4072C19.2711 32.4072 14.6271 27.7631 14.6271 22.0342C14.6271 16.3055 19.2711 11.6613 24.9999 11.6613C30.7287 11.6613 35.3728 16.3055 35.3728 22.0342C35.3728 27.7631 30.7287 32.4072 24.9999 32.4072ZM44.0821 12.7107H39.5411C39.3507 12.7107 39.1623 12.6733 38.9865 12.6004C38.8106 12.5276 38.6508 12.4208 38.5163 12.2862C38.3817 12.1516 38.275 11.9919 38.2021 11.816C38.1293 11.6402 38.0919 11.4517 38.0919 11.2614C38.0919 11.0711 38.1293 10.8826 38.2021 10.7067C38.275 10.5309 38.3817 10.3711 38.5163 10.2365C38.6508 10.1019 38.8106 9.99518 38.9865 9.92234C39.1623 9.8495 39.3507 9.81201 39.5411 9.81201H44.0821C44.2725 9.81199 44.461 9.84946 44.6368 9.92229C44.8127 9.99512 44.9725 10.1019 45.107 10.2365C45.2416 10.3711 45.3484 10.5308 45.4212 10.7067C45.494 10.8826 45.5315 11.071 45.5315 11.2614C45.5315 11.6458 45.3788 12.0144 45.107 12.2862C44.8352 12.558 44.4665 12.7107 44.0821 12.7107Z" fill="#474747"/>
<path d="M24.9999 29.2807C29.002 29.2807 32.2464 26.0363 32.2464 22.0342C32.2464 18.032 29.002 14.7877 24.9999 14.7877C20.9978 14.7877 17.7534 18.032 17.7534 22.0342C17.7534 26.0363 20.9978 29.2807 24.9999 29.2807Z" fill="#474747"/>
</svg>
