<svg width="20" height="15" viewBox="0 0 20 15" fill="none" xmlns="http://www.w3.org/2000/svg">
<path d="M19.6042 3.74526L17.4211 3.89684L16.0042 1.10737C15.6842 0.47579 14.9095 0 14.2021 0H5.79789C5.09053 0 4.31579 0.47579 3.99579 1.10737L2.57895 3.89684L0.39579 3.74526C0.176842 3.73263 0 3.89895 0 4.11579V4.55789C0 4.76632 0.126316 5.02947 0.286316 5.16211L1.13895 5.85263C0.915789 6.16421 0.736842 6.69684 0.736842 7.06737V11.7411C0.736842 12.1747 1.03368 12.5347 1.43579 12.64V13.9284C1.43579 14.1747 1.63368 14.3747 1.88 14.3747H4.43579C4.68211 14.3747 4.88211 14.1747 4.88211 13.9284V12.6716H15.1179V13.9284C15.1179 14.1747 15.3179 14.3747 15.5642 14.3747H18.12C18.3663 14.3747 18.5642 14.1747 18.5642 13.9284V12.64C18.9663 12.5347 19.2632 12.1747 19.2632 11.7411V7.06737C19.2632 6.69684 19.0842 6.16421 18.8611 5.85263L19.7137 5.16211C19.8737 5.02947 20 4.76632 20 4.55789V4.11579C20 3.89895 19.8232 3.73263 19.6042 3.74526ZM3.43579 9.79158C2.76211 9.79158 2.21474 9.24421 2.21474 8.57053C2.21474 7.89474 2.76211 7.34947 3.43579 7.34947C4.10947 7.34947 4.65684 7.89474 4.65684 8.57053C4.65684 9.24421 4.10947 9.79158 3.43579 9.79158ZM13.9347 11.4842C13.9347 11.6126 13.8295 11.7179 13.7011 11.7179H6.29895C6.17053 11.7179 6.06526 11.6126 6.06526 11.4842V11.0147H13.9347V11.4842ZM13.9347 10.2H6.06526V9.72842C6.06526 9.6 6.17053 9.49684 6.29895 9.49684H13.7011C13.8295 9.49684 13.9347 9.6 13.9347 9.72842V10.2ZM3.36421 5.93684C2.97263 5.93684 2.8 5.65474 2.97684 5.30526L4.87789 1.56421C4.99579 1.33263 5.36632 1.10526 5.62526 1.10526H14.3747C14.6337 1.10526 15.0042 1.33263 15.1221 1.56421L17.0232 5.30526C17.2 5.65474 17.0274 5.93684 16.6358 5.93684H3.36421ZM16.5642 9.79158C15.8884 9.79158 15.3432 9.24421 15.3432 8.57053C15.3432 7.89474 15.8884 7.34947 16.5642 7.34947C17.2379 7.34947 17.7853 7.89474 17.7853 8.57053C17.7853 9.24421 17.2379 9.79158 16.5642 9.79158Z" fill="#474747"/>
</svg>
