<svg width="50" height="50" viewBox="0 0 50 50" fill="none" xmlns="http://www.w3.org/2000/svg">
<path d="M25 10.1429C27.8009 10.1429 30.0714 7.8723 30.0714 5.07143C30.0714 2.27056 27.8009 0 25 0C22.1991 0 19.9286 2.27056 19.9286 5.07143C19.9286 7.8723 22.1991 10.1429 25 10.1429Z" fill="#129C20"/>
<path d="M19.9286 9.67857C18.8707 9.86478 17.9097 10.4109 17.2084 11.2245C16.5071 12.0381 16.1086 13.0691 16.0804 14.1429V15.9643C16.0807 16.2135 16.1302 16.4602 16.226 16.6903C16.3218 16.9204 16.4621 17.1293 16.6387 17.3051C16.8153 17.4809 17.0249 17.6202 17.2554 17.7149C17.486 17.8096 17.7329 17.858 17.9821 17.8571H32.0178C32.2671 17.858 32.514 17.8096 32.7445 17.7149C32.9751 17.6202 33.1846 17.4809 33.3613 17.3051C33.5379 17.1293 33.6782 16.9204 33.774 16.6903C33.8698 16.4602 33.9193 16.2135 33.9196 15.9643V14.1429C33.8931 13.0696 33.4949 12.0387 32.7932 11.2262C32.0914 10.4137 31.1294 9.8699 30.0714 9.6875C29.4228 10.3842 28.6376 10.9397 27.7646 11.3192C26.8917 11.6987 25.9499 11.8942 24.998 11.8933C24.0462 11.8925 23.1047 11.6954 22.2325 11.3143C21.3602 10.9333 20.5759 10.3764 19.9286 9.67857Z" fill="#129C20"/>
<path d="M42.698 18.0893C45.2094 17.6803 46.9137 15.3129 46.5047 12.8015C46.0957 10.2901 43.7282 8.58582 41.2169 8.99482C38.7055 9.40382 37.0012 11.7712 37.4102 14.2826C37.8192 16.794 40.1866 18.4983 42.698 18.0893Z" fill="#129C20"/>
<path d="M37.0893 17.6607C36.1977 17.8669 35.4016 18.3677 34.8297 19.0822C34.2578 19.7967 33.9435 20.6831 33.9375 21.5982V23.2143C33.9389 23.6874 34.1275 24.1408 34.4621 24.4754C34.7967 24.81 35.25 24.9986 35.7232 25H48.2054C48.6785 24.9986 49.1319 24.81 49.4665 24.4754C49.8011 24.1408 49.9897 23.6874 49.9911 23.2143V21.5982C49.9848 20.6831 49.6703 19.7969 49.0985 19.0825C48.5266 18.3681 47.7308 17.8672 46.8393 17.6607C46.2349 18.3613 45.4865 18.9234 44.6453 19.3087C43.804 19.694 42.8896 19.8935 41.9643 19.8935C41.039 19.8935 40.1246 19.694 39.2833 19.3087C38.442 18.9234 37.6937 18.3613 37.0893 17.6607Z" fill="#129C20"/>
<path d="M8.03572 18.1429C10.5802 18.1429 12.6429 16.0802 12.6429 13.5357C12.6429 10.9913 10.5802 8.92857 8.03572 8.92857C5.49126 8.92857 3.42857 10.9913 3.42857 13.5357C3.42857 16.0802 5.49126 18.1429 8.03572 18.1429Z" fill="#129C20"/>
<path d="M1.79465 25H14.2768C14.75 24.9986 15.2033 24.81 15.5379 24.4754C15.8725 24.1408 16.0611 23.6874 16.0625 23.2143V21.5982C16.0562 20.6831 15.7418 19.7969 15.1699 19.0825C14.5981 18.3681 13.8022 17.8672 12.9107 17.6607C12.3063 18.3613 11.558 18.9234 10.7167 19.3087C9.87545 19.694 8.96102 19.8935 8.03572 19.8935C7.11042 19.8935 6.19599 19.694 5.35473 19.3087C4.51346 18.9234 3.76513 18.3613 3.16072 17.6607C2.2691 17.8669 1.47303 18.3677 0.901139 19.0822C0.329244 19.7967 0.0149161 20.6831 0.00893387 21.5982V23.2143C0.010347 23.6874 0.198938 24.1408 0.533518 24.4754C0.868099 24.81 1.32148 24.9986 1.79465 25ZM45.4018 34.3036C44.1643 34.2678 42.1723 34.5643 41.2857 33.5357L35.9911 27.3036C35.1213 26.4487 33.9517 25.968 32.7321 25.9643H20.9732C20.358 25.9677 19.7495 26.0926 19.1827 26.3316C18.6158 26.5706 18.1016 26.9191 17.6696 27.3571L12.4732 33.4821C11.944 34.008 11.2283 34.3033 10.4821 34.3036H4.59822C3.37773 34.3055 2.2079 34.7917 1.34573 35.6556C0.483547 36.5194 -0.000469609 37.6902 5.09965e-06 38.9107V42.6518C-0.00114033 43.2454 0.190699 43.8233 0.546609 44.2984C0.902519 44.7734 1.40321 45.12 1.97322 45.2857C1.86628 44.4204 1.93768 43.5423 2.18302 42.7057C2.42836 41.869 2.84244 41.0914 3.39974 40.4209C3.95704 39.7503 4.64575 39.201 5.42344 38.8068C6.20112 38.4126 7.0513 38.1818 7.92158 38.1287C8.79186 38.0755 9.6638 38.2012 10.4837 38.4979C11.3035 38.7946 12.054 39.256 12.6887 39.8538C13.3234 40.4515 13.829 41.1729 14.1743 41.9736C14.5196 42.7742 14.6973 43.637 14.6964 44.5089C14.7 44.8081 14.6761 45.107 14.625 45.4018H35.375C35.2627 44.6838 35.2839 43.9513 35.4375 43.2411C37.2473 35.3098 48.7964 37.1643 48.0268 45.2857C48.5968 45.12 49.0975 44.7734 49.4534 44.2984C49.8093 43.8233 50.0011 43.2454 50 42.6518V38.9107C50.0005 37.6902 49.5165 36.5194 48.6543 35.6556C47.7921 34.7917 46.6223 34.3055 45.4018 34.3036ZM25.9643 34.3036H14.1161L18.9821 28.5714C19.5114 28.0455 20.2271 27.7502 20.9732 27.75H25.9643V34.3036ZM27.75 34.3036V27.75H32.7321C33.4556 27.7457 34.1529 28.0208 34.6786 28.5178L39.5982 34.3036H27.75Z" fill="#129C20"/>
<path d="M3.70536 44.5089C3.89465 50.5786 12.7232 50.5875 12.9107 44.5089C12.7241 38.4196 3.89554 38.425 3.70536 44.5089ZM37.0893 44.5089C37.2768 50.5857 46.1045 50.5803 46.2946 44.5089C46.1054 38.4268 37.2768 38.4178 37.0893 44.5089ZM10.8125 7.77678C13.019 5.95232 15.5563 4.56999 18.2857 3.70535C18.4265 2.97481 18.6923 2.27404 19.0714 1.63393C15.2323 2.60735 11.695 4.51869 8.77679 7.19642C9.48147 7.26807 10.1678 7.46458 10.8036 7.77678H10.8125ZM39.1875 7.77678H39.1964C39.8322 7.46458 40.5185 7.26807 41.2232 7.19642C38.305 4.51869 34.7677 2.60735 30.9286 1.63393C31.3077 2.27404 31.5735 2.97481 31.7143 3.70535C34.4437 4.56999 36.981 5.95232 39.1875 7.77678Z" fill="#129C20"/>
</svg>
