<svg width="20" height="28" viewBox="0 0 20 28" fill="none" xmlns="http://www.w3.org/2000/svg">
<path d="M7.44487 2.4843C7.8945 2.4843 8.25902 2.11978 8.25902 1.67015V0.814151C8.25902 0.364523 7.8945 0 7.44487 0C6.99524 0 6.63072 0.364523 6.63072 0.814151V1.67015C6.63072 2.11983 6.99524 2.4843 7.44487 2.4843ZM11.5281 4.17573C11.635 4.17587 11.741 4.15487 11.8397 4.11394C11.9385 4.07301 12.0283 4.01296 12.1038 3.93723L12.7091 3.33194C13.027 3.01404 13.027 2.49852 12.7091 2.18057C12.3912 1.86267 11.8756 1.86267 11.5577 2.18057L10.9524 2.78586C10.6344 3.10376 10.6344 3.61928 10.9524 3.93723C11.0279 4.01295 11.1177 4.073 11.2165 4.11392C11.3153 4.15485 11.4212 4.17586 11.5281 4.17573ZM12.4053 7.44481C12.4053 7.89444 12.7699 8.25897 13.2195 8.25897H14.0755C14.5251 8.25897 14.8896 7.89444 14.8896 7.44481C14.8896 6.99519 14.5251 6.63066 14.0755 6.63066H13.2195C12.7699 6.63066 12.4053 6.99519 12.4053 7.44481ZM2.4843 7.44481C2.4843 6.99519 2.11978 6.63066 1.67015 6.63066H0.814151C0.364523 6.63066 0 6.99519 0 7.44481C0 7.89444 0.364523 8.25897 0.814151 8.25897H1.67015C2.11978 8.25897 2.4843 7.89444 2.4843 7.44481ZM2.78586 3.93723C2.94484 4.09621 3.15321 4.17573 3.36152 4.17573C3.56983 4.17573 3.77826 4.09621 3.93718 3.93723C4.25513 3.61934 4.25513 3.10382 3.93718 2.78586L3.33189 2.18057C3.01399 1.86267 2.49847 1.86267 2.18051 2.18057C1.86256 2.49847 1.86256 3.01399 2.18051 3.33194L2.78586 3.93723Z" fill="#FF1010"/>
<path d="M17.5076 12.1037C17.1032 12.1032 16.7048 12.2017 16.3473 12.3908C15.9258 11.6107 15.1002 11.0795 14.153 11.0795C13.7486 11.079 13.3502 11.1775 12.9928 11.3666C12.5713 10.5865 11.7461 10.0553 10.7992 10.0553C10.5045 10.055 10.2122 10.1072 9.93591 10.2095L9.93585 6.24699C9.93574 4.87373 8.81829 3.7565 7.44482 3.7565C6.07102 3.7565 4.95346 4.87411 4.95346 6.2478L4.95363 14.0641H4.60745C3.23392 14.0641 2.11637 15.182 2.11637 16.556L2.11626 18.2513C2.11609 20.8061 3.1175 23.2989 4.87503 25.146V26.9754C4.87503 27.425 5.23956 27.7895 5.68919 27.7895H17.0147C17.4643 27.7895 17.8288 27.425 17.8288 26.9754V25.0892C19.231 23.2154 20 20.9112 20 18.5679V14.596C20 13.2218 18.882 12.1037 17.5076 12.1037ZM18.3717 18.5679C18.3717 20.6422 17.663 22.6805 16.3761 24.3073C16.2624 24.4511 16.2005 24.6291 16.2005 24.8124V26.1613H6.50334V24.8124C6.50334 24.5934 6.41514 24.3837 6.25866 24.2306C4.6608 22.6666 3.7444 20.4873 3.74456 18.2514L3.74467 16.5562C3.74472 16.08 4.13177 15.6925 4.60745 15.6925H5.76778C5.9837 15.6925 6.19077 15.6067 6.34345 15.454C6.49613 15.3013 6.58192 15.0943 6.58193 14.8783L6.58177 6.24786C6.58177 5.77196 6.96898 5.38486 7.44482 5.38486C7.9205 5.38486 8.3075 5.77169 8.30755 6.24715L8.30771 14.3034C8.30771 14.7531 8.67224 15.1176 9.12186 15.1176C9.57144 15.1176 9.93596 14.7531 9.93602 14.3035L9.93612 12.5468C9.93612 12.0709 10.3233 11.6837 10.7992 11.6837C11.2752 11.6837 11.6623 12.0713 11.6623 12.5477V15.3277C11.6623 15.7773 12.0269 16.1418 12.4765 16.1418C12.9261 16.1418 13.2906 15.7773 13.2906 15.3277V13.5702C13.2906 13.0947 13.6775 12.7079 14.153 12.7079C14.6294 12.7079 15.017 13.0955 15.017 13.572V16.8638C15.017 17.3134 15.3815 17.6779 15.8312 17.6779C16.2808 17.6779 16.6453 17.3134 16.6453 16.8638V14.5943C16.6453 14.1188 17.0322 13.732 17.5076 13.732C17.9841 13.732 18.3717 14.1196 18.3717 14.5961V18.5679Z" fill="#FF1010"/>
</svg>
