<svg width="35" height="35" viewBox="0 0 35 35" fill="none" xmlns="http://www.w3.org/2000/svg">
<path d="M19.2238 10.3903V6.99888C19.2238 4.54976 21.2163 2.5573 23.6655 2.5573C26.1146 2.5573 28.107 4.54976 28.107 6.99888V10.3903L29.4963 11.3187C30.1041 11.7239 30.6024 12.2731 30.9468 12.9173C31.2911 13.5615 31.471 14.2809 31.4703 15.0114V15.2734L31.3445 15.5031C29.8923 18.1556 27.1871 19.8583 24.1963 20.0396C24.4279 20.8668 24.5787 21.7145 24.6465 22.5708C30.4234 22.0718 34.9723 17.211 34.9723 11.3069C34.9723 5.07222 29.9 0 23.6653 0C17.7612 0 12.9004 4.54887 12.4014 10.3258C14.12 10.4617 15.7955 10.9315 17.3341 11.709C17.4913 11.5671 17.6585 11.4366 17.8345 11.3187L19.2238 10.3903Z" fill="white"/>
<path d="M29.4098 14.7615C29.3734 14.4119 29.2603 14.0748 29.0786 13.774C28.897 13.4731 28.6512 13.2161 28.3588 13.0212L26.0595 11.4848V6.99884C26.0595 5.67873 24.9856 4.6048 23.6655 4.6048C22.3454 4.6048 21.2714 5.67873 21.2714 6.99884V11.4848L19.2119 12.8609C21.02 14.186 22.4834 15.9543 23.4413 18.0047C23.5165 18.0073 23.5914 18.009 23.6655 18.009C26.0229 18.009 28.1988 16.7717 29.4098 14.7615ZM16.028 25.3518L13.7288 23.8155V19.3296C13.7288 18.0095 12.6548 16.9356 11.3347 16.9356C10.0146 16.9356 8.94063 18.0095 8.94063 19.3296V23.8156L6.64139 25.3519C6.34899 25.5469 6.1032 25.8039 5.92154 26.1047C5.73987 26.4055 5.6268 26.7427 5.59039 27.0922C6.8013 29.1024 8.97721 30.3398 11.3347 30.3398C13.6923 30.3398 15.8682 29.1024 17.0791 27.0922C17.0427 26.7426 16.9296 26.4055 16.7479 26.1046C16.5662 25.8038 16.3204 25.5468 16.028 25.3518Z" fill="white"/>
<path d="M11.3347 12.3307C5.1 12.3307 0.02771 17.4029 0.02771 23.6376C0.02771 29.8723 5.1 34.9446 11.3347 34.9446C17.5693 34.9446 22.6416 29.8723 22.6416 23.6376C22.6416 17.4029 17.5693 12.3307 11.3347 12.3307ZM19.1395 27.6041L19.0137 27.8338C17.4761 30.6424 14.5337 32.3873 11.3347 32.3873C8.13567 32.3873 5.19323 30.6425 3.6556 27.8338L3.52981 27.6041V27.3422C3.5291 26.6116 3.70894 25.8922 4.05333 25.248C4.39773 24.6037 4.896 24.0546 5.50384 23.6494L6.89309 22.7211V19.3296C6.89309 16.8805 8.88555 14.888 11.3347 14.888C13.7838 14.888 15.7763 16.8805 15.7763 19.3296V22.7211L17.1656 23.6494C17.7734 24.0547 18.2716 24.6038 18.616 25.2481C18.9604 25.8923 19.1402 26.6117 19.1395 27.3422V27.6041ZM26.5106 30.108L28.1406 27.4085L26.3878 26.3501L23.152 31.7089L28.5107 34.9446L29.5691 33.1918L27.5225 31.956C31.8407 30.6751 35 26.6714 35 21.943H32.9525C32.9525 25.8997 30.2008 29.2254 26.5106 30.108ZM8.48949 4.83655L6.85944 7.53609L8.61227 8.59452L11.8481 3.23572L6.48925 0L5.43088 1.75276L7.47753 2.98851C3.15928 4.26945 0 8.2732 0 13.0016H2.04753C2.04753 9.04478 4.79935 5.7191 8.48949 4.83655Z" fill="white"/>
</svg>
