<svg width="21" height="21" viewBox="0 0 21 21" fill="none" xmlns="http://www.w3.org/2000/svg">
<path d="M20.1828 9.54063L10.9324 0.673607C10.8161 0.562062 10.6611 0.499786 10.4999 0.499786C10.3387 0.499786 10.1838 0.562062 10.0674 0.673607L0.807859 9.5498C0.661432 9.69533 0.56147 9.88103 0.520625 10.0834C0.47978 10.2858 0.499887 10.4957 0.578403 10.6866C0.656918 10.8776 0.790312 11.0409 0.961702 11.156C1.13309 11.2711 1.33477 11.3328 1.54122 11.3332H2.99961V19.2502C2.99961 19.5817 3.13131 19.8997 3.36574 20.1341C3.60017 20.3685 3.91813 20.5002 4.24966 20.5002H7.79147C7.95724 20.5002 8.11622 20.4344 8.23343 20.3172C8.35065 20.2 8.4165 20.041 8.4165 19.8752V14.4583C8.4165 14.4031 8.43845 14.3501 8.47752 14.311C8.51659 14.2719 8.56958 14.25 8.62484 14.25H12.375C12.4892 14.25 12.5833 14.3442 12.5833 14.4583V19.8752C12.5833 20.2202 12.8633 20.5002 13.2084 20.5002H16.7502C17.0817 20.5002 17.3997 20.3685 17.6341 20.1341C17.8685 19.8997 18.0002 19.5817 18.0002 19.2502V11.3332H19.4586C19.6662 11.3328 19.8689 11.2705 20.0409 11.1543C20.2129 11.038 20.3463 10.8731 20.424 10.6807C20.5018 10.4882 20.5204 10.2769 20.4774 10.0738C20.4344 9.87075 20.3319 9.6851 20.1828 9.54063Z" fill="#129C20"/>
</svg>
