<svg width="17" height="18" viewBox="0 0 17 18" fill="none" xmlns="http://www.w3.org/2000/svg">
<path d="M11.3803 2.53716C11.3803 3.69042 12.1645 4.65915 13.2255 4.96361V12.6858C13.2255 13.8298 12.2936 14.7617 11.1496 14.7617H10.9743L11.6386 14.0974C11.9062 13.8298 11.9062 13.387 11.6386 13.1194C11.371 12.8519 10.9282 12.8519 10.6606 13.1194L8.81543 14.9646C8.68778 15.0957 8.61515 15.2707 8.61246 15.4536C8.61515 15.6366 8.68778 15.8115 8.81543 15.9426L10.6606 17.7878C10.9282 18.0554 11.371 18.0554 11.6386 17.7878C11.9062 17.5202 11.9062 17.0774 11.6386 16.8098L10.9743 16.1456H11.1496C13.0594 16.1456 14.6094 14.5956 14.6094 12.6858V4.96361C15.6704 4.65915 16.4546 3.69042 16.4546 2.53716C16.4546 1.1348 15.3198 0 13.9174 0C12.5151 0 11.3803 1.1348 11.3803 2.53716ZM15.0707 2.53716C15.0707 2.84302 14.9492 3.13636 14.7329 3.35263C14.5166 3.56891 14.2233 3.69042 13.9174 3.69042C13.6116 3.69042 13.3182 3.56891 13.102 3.35263C12.8857 3.13636 12.7642 2.84302 12.7642 2.53716C12.7642 2.2313 12.8857 1.93796 13.102 1.72169C13.3182 1.50541 13.6116 1.38391 13.9174 1.38391C14.2233 1.38391 14.5166 1.50541 14.7329 1.72169C14.9492 1.93796 15.0707 2.2313 15.0707 2.53716ZM5.38334 15.4536C5.38334 14.3004 4.59913 13.3316 3.53814 13.0272V5.30497C3.53814 4.16094 4.46997 3.22911 5.61399 3.22911H5.78929L5.12502 3.89339C4.98662 4.03178 4.92204 4.20707 4.92204 4.38237C4.92204 4.55766 4.98662 4.73296 5.12502 4.87135C5.39257 5.1389 5.83542 5.1389 6.10297 4.87135L7.94818 3.02614C8.01079 2.96221 8.06086 2.8871 8.0958 2.80472C8.1323 2.72186 8.15114 2.63231 8.15114 2.54177C8.15114 2.45124 8.1323 2.36169 8.0958 2.27883C8.05889 2.1958 8.01276 2.12199 7.94818 2.05741L6.10297 0.212199C5.83542 -0.0553562 5.39257 -0.0553562 5.12502 0.212199C4.85746 0.479754 4.85746 0.922604 5.12502 1.19016L5.78929 1.85443H5.61399C3.7042 1.85443 2.15423 3.40441 2.15423 5.3142V13.0364C1.09324 13.3408 0.309023 14.3096 0.309023 15.4628C0.309023 16.8652 1.44383 18 2.84618 18C4.24854 18 5.38334 16.8652 5.38334 15.4628V15.4536ZM1.69293 15.4536C1.69293 15.1478 1.81443 14.8544 2.03071 14.6381C2.24699 14.4219 2.54032 14.3004 2.84618 14.3004C3.15205 14.3004 3.44538 14.4219 3.66166 14.6381C3.87794 14.8544 3.99944 15.1478 3.99944 15.4536C3.99944 15.7595 3.87794 16.0528 3.66166 16.2691C3.44538 16.4854 3.15205 16.6069 2.84618 16.6069C2.54032 16.6069 2.24699 16.4854 2.03071 16.2691C1.81443 16.0528 1.69293 15.7595 1.69293 15.4536Z" fill="#129C20"/>
</svg>
