<svg width="40" height="40" viewBox="0 0 40 40" fill="none" xmlns="http://www.w3.org/2000/svg">
<path d="M20 0C13.4 0 8 5.4 8 12C8 18.6 20 34 20 34C20 34 32 18.6 32 12C32 5.4 26.6 0 20 0ZM20 16C17.8 16 16 14.2 16 12C16 9.8 17.8 8 20 8C22.2 8 24 9.8 24 12C24 14.2 22.2 16 20 16Z" fill="#129C20" fill-opacity="0.64"/>
<path d="M32.6 22.2C32 23.4 31.4 24.6 30.6 25.8C34 27 36 28.6 36 30C36 32.4 29.6 36 20 36C10.4 36 4 32.4 4 30C4 28.6 6 27 9.4 25.6C8.6 24.4 8 23.2 7.4 22C2.8 24 0 26.8 0 30C0 35.6 8.4 40 19.6 40C29.6 40 40 36.6 40 30C40 26.8 37.2 24 32.6 22.2Z" fill="#129C20" fill-opacity="0.64"/>
</svg>
