<svg width="26" height="23" viewBox="0 0 26 23" fill="none" xmlns="http://www.w3.org/2000/svg">
<path d="M25.5 15.2111C25.5 12.6518 23.6329 10.4938 21.0549 9.69769C20.6426 13.7208 17.4481 17.0387 13.1896 18.1377C14.3333 19.9129 16.4771 21.0704 18.9082 21.0704C19.7938 21.0704 20.6534 20.9144 21.4688 20.607L25.1317 22.4372L24.199 18.705C25.0409 17.6988 25.5 16.4721 25.5 15.2111Z" fill="#474747"/>
<path d="M10.0215 0.562683C4.77148 0.562683 0.5 4.2641 0.5 8.81464C0.5 10.6406 1.20093 12.4151 2.48345 13.855L1.22881 18.7624L6.15986 16.3519C7.38726 16.8263 8.68462 17.0666 10.0215 17.0666C15.2715 17.0666 19.543 13.365 19.543 8.81464C19.543 4.26429 15.2715 0.562683 10.0215 0.562683ZM7.82422 9.35175H6.35938V7.8869H7.82422V9.35175ZM10.7539 9.35175H9.28906V7.8869H10.7539V9.35175ZM13.6836 9.35175H12.2188V7.8869H13.6836V9.35175Z" fill="#474747"/>
</svg>
