<svg width="40" height="35" viewBox="0 0 40 35" fill="none" xmlns="http://www.w3.org/2000/svg">
<path d="M16.6573 11.3987C16.8742 11.5222 17.1212 11.5831 17.3707 11.5747C17.6263 11.5512 17.8741 11.4734 18.0973 11.3467L34.1106 2.00267C33.7627 1.39613 33.2612 0.891802 32.6567 0.540289C32.0522 0.188775 31.3659 0.00244519 30.6666 0H3.99999C3.30049 0.00221158 2.61389 0.188431 2.00914 0.539956C1.40438 0.891481 0.902765 1.39594 0.554657 2.00267L16.6573 11.3987Z" fill="#129C20" fill-opacity="0.64"/>
<path d="M34.6667 4.76001V14.0267C33.3837 13.5649 32.0301 13.3303 30.6667 13.3333C27.4856 13.3383 24.4362 14.6041 22.1868 16.8535C19.9375 19.1029 18.6716 22.1523 18.6667 25.3333C18.6663 25.779 18.693 26.2243 18.7467 26.6667H4C2.94011 26.6635 1.92453 26.2411 1.17507 25.4916C0.425609 24.7421 0.00316545 23.7266 0 22.6667V4.76001L15.32 13.7067C15.9373 14.0443 16.6297 14.2212 17.3333 14.2212C18.037 14.2212 18.7293 14.0443 19.3467 13.7067L34.6667 4.76001Z" fill="#129C20" fill-opacity="0.64"/>
<path d="M30.6666 16C28.1913 16 25.8173 16.9833 24.067 18.7337C22.3166 20.484 21.3333 22.858 21.3333 25.3333C21.3333 27.8087 22.3166 30.1827 24.067 31.933C25.8173 33.6833 28.1913 34.6667 30.6666 34.6667C31.0203 34.6667 31.3594 34.5262 31.6095 34.2761C31.8595 34.0261 32 33.6869 32 33.3333C32 32.9797 31.8595 32.6406 31.6095 32.3905C31.3594 32.1405 31.0203 32 30.6666 32C29.3481 32 28.0592 31.609 26.9628 30.8765C25.8665 30.1439 25.012 29.1027 24.5074 27.8846C24.0029 26.6664 23.8708 25.3259 24.1281 24.0327C24.3853 22.7395 25.0202 21.5516 25.9526 20.6193C26.8849 19.6869 28.0728 19.052 29.366 18.7948C30.6592 18.5375 31.9997 18.6696 33.2179 19.1741C34.436 19.6787 35.4772 20.5332 36.2098 21.6295C36.9423 22.7259 37.3333 24.0148 37.3333 25.3333V26.6667C37.3333 27.0203 37.1928 27.3594 36.9428 27.6095C36.6927 27.8595 36.3536 28 36 28C35.6464 28 35.3072 27.8595 35.0572 27.6095C34.8071 27.3594 34.6666 27.0203 34.6666 26.6667V25.3333C34.6666 24.5422 34.432 23.7688 33.9925 23.1111C33.553 22.4533 32.9283 21.9406 32.1974 21.6378C31.4665 21.3351 30.6622 21.2558 29.8863 21.4102C29.1104 21.5645 28.3976 21.9455 27.8382 22.5049C27.2788 23.0643 26.8978 23.777 26.7435 24.553C26.5892 25.3289 26.6684 26.1332 26.9711 26.8641C27.2739 27.595 27.7866 28.2197 28.4444 28.6592C29.1022 29.0987 29.8755 29.3333 30.6666 29.3333C31.3554 29.329 32.0311 29.1446 32.6266 28.7987C33.0875 29.5331 33.775 30.0975 34.5851 30.4065C35.3952 30.7156 36.2839 30.7525 37.1168 30.5116C37.9498 30.2708 38.6817 29.7653 39.2018 29.0716C39.722 28.3779 40.0022 27.5337 40 26.6667V25.3333C39.9972 22.8588 39.0129 20.4865 37.2632 18.7368C35.5135 16.9871 33.1411 16.0028 30.6666 16ZM30.6666 26.6667C30.4029 26.6667 30.1451 26.5885 29.9259 26.442C29.7066 26.2954 29.5357 26.0872 29.4348 25.8436C29.3339 25.5999 29.3075 25.3319 29.3589 25.0732C29.4104 24.8146 29.5374 24.577 29.7238 24.3905C29.9103 24.2041 30.1479 24.0771 30.4065 24.0256C30.6652 23.9742 30.9333 24.0006 31.1769 24.1015C31.4205 24.2024 31.6288 24.3733 31.7753 24.5926C31.9218 24.8118 32 25.0696 32 25.3333C32 25.687 31.8595 26.0261 31.6095 26.2761C31.3594 26.5262 31.0203 26.6667 30.6666 26.6667Z" fill="#129C20" fill-opacity="0.64"/>
</svg>
