<svg width="50" height="35" viewBox="0 0 50 35" fill="none" xmlns="http://www.w3.org/2000/svg">
<path fill-rule="evenodd" clip-rule="evenodd" d="M28.9856 0.00190278C27.0316 -0.0858762 27.0316 2.89305 28.9856 2.80279H31.0744L32.6321 6.77263H25.9523C23.9241 6.77263 22.3403 8.21728 21.8347 10.1008C21.5058 11.3272 20.5984 11.2821 19.2174 11.2821H16.7973C15.4225 11.2821 14.74 10.6837 13.6193 10.0174C12.6309 9.43134 11.9911 9.19026 10.5063 9.19026H4.35369C4.03938 9.18961 3.72803 9.25105 3.43752 9.37105C3.14702 9.49105 2.88308 9.66725 2.66085 9.88953C2.43863 10.1118 2.26249 10.3758 2.14257 10.6663C2.02264 10.9569 1.96129 11.2682 1.96202 11.5825V13.6324C1.96202 14.4211 2.36073 15.1135 2.92141 15.545C2.51837 15.812 2.12583 16.1019 1.74937 16.411C1.35004 16.7423 0.97667 17.1064 0.609482 17.473C-1.14177 19.2243 1.30491 21.4942 2.63149 20.0489C4.63742 17.8668 7.33508 16.5915 10.2967 16.5915C13.0042 16.5915 15.6049 17.6665 17.5212 19.5828C18.7921 20.8568 19.668 22.4406 20.1477 24.1479C20.2639 24.5602 20.3406 25.0455 20.408 25.4281L11.0564 25.4992C9.37996 25.5122 9.37996 28.2327 11.0335 28.2327H14.2146C13.6286 29.8295 12.0993 30.9755 10.2967 30.9755C9.19016 30.9752 8.12903 30.5355 7.34659 29.753C6.56415 28.9706 6.12443 27.9095 6.1241 26.8029C6.12492 25.6966 6.56482 24.6358 7.34717 23.8536C8.12952 23.0713 9.19037 22.6316 10.2967 22.631C11.3371 22.631 12.2798 23.0198 13.0104 23.6515H17.795C17.3891 22.6785 16.7974 21.7938 16.053 21.0472C15.2972 20.291 14.3999 19.6911 13.4122 19.2818C12.4245 18.8725 11.3658 18.6618 10.2967 18.6617C5.80266 18.6617 2.15798 22.3095 2.15798 26.8029C2.15798 31.2976 5.80266 34.9417 10.2967 34.9417C14.3018 34.9417 17.6269 32.0443 18.3068 28.2327H25.7427C30.0056 28.2327 30.6719 27.1707 31.9015 24.1733L35.7644 14.7568L40.6163 27.112C41.3018 28.8546 43.913 27.8266 43.2274 26.0852L41.8656 22.631C42.971 22.6324 44.0306 23.0727 44.8116 23.8549C45.5926 24.6372 46.0311 25.6975 46.0308 26.8029C46.0306 27.9094 45.591 28.9705 44.8087 29.753C44.0264 30.5355 42.9653 30.9752 41.8588 30.9755C41.1875 30.9756 40.5262 30.8137 39.9309 30.5035C39.3356 30.1934 38.8239 29.7442 38.4393 29.194C38.0546 28.6439 37.8084 28.0091 37.7216 27.3434C37.6347 26.6778 37.7097 26.0011 37.9403 25.3707L36.2045 20.9632C35.4183 21.719 34.7929 22.6259 34.3659 23.6294C33.9389 24.6329 33.719 25.7123 33.7195 26.8029C33.7195 31.2976 37.3642 34.9417 41.8582 34.9417C46.3522 34.9417 50 31.2976 50 26.8029C50 24.6468 49.1408 22.5759 47.6145 21.0472C46.0875 19.521 44.0172 18.663 41.8582 18.6617C41.3464 18.6617 40.8438 18.7168 40.3573 18.807L38.1684 13.2442H39.2217C40.2899 13.2442 40.9272 12.9351 40.9272 11.9269V8.08808C40.9272 7.08109 40.2893 6.77201 39.2217 6.77201H38.5739C38.1004 6.77155 37.6328 6.87617 37.2047 7.07831C36.7766 7.28045 36.3986 7.57508 36.0982 7.94096L33.3331 0.88711C33.0729 0.223204 32.5505 0.00190278 32.0263 0.00190278H28.9856Z" fill="#129C20"/>
</svg>
