<svg width="20" height="20" viewBox="0 0 20 20" fill="none" xmlns="http://www.w3.org/2000/svg">
<path d="M15.4545 0H4.54545C3.94854 0 3.35746 0.117572 2.80598 0.346002C2.2545 0.574433 1.75342 0.909248 1.33133 1.33133C0.478895 2.18377 9.4753e-08 3.33993 9.4753e-08 4.54545V11.8182C-0.000213773 12.866 0.361621 13.8818 1.02427 14.6935C1.68691 15.5053 2.60967 16.0632 3.63636 16.2727V18.1818C3.63562 18.5413 3.74144 18.8929 3.94046 19.1923C4.13949 19.4916 4.42278 19.7252 4.75455 19.8636C4.97705 19.9533 5.21465 19.9996 5.45455 20C5.93598 19.998 6.39695 19.8051 6.73636 19.4636L9.84546 16.3636H15.4545C16.0515 16.3636 16.6425 16.2461 17.194 16.0176C17.7455 15.7892 18.2466 15.4544 18.6687 15.0323C19.0908 14.6102 19.4256 14.1091 19.654 13.5577C19.8824 13.0062 20 12.4151 20 11.8182V4.54545C20 3.94854 19.8824 3.35746 19.654 2.80598C19.4256 2.2545 19.0908 1.75342 18.6687 1.33133C18.2466 0.909248 17.7455 0.574433 17.194 0.346002C16.6425 0.117572 16.0515 0 15.4545 0ZM18.1818 11.8182C18.1818 12.5415 17.8945 13.2352 17.383 13.7467C16.8716 14.2581 16.1779 14.5455 15.4545 14.5455H9.46364C9.22515 14.5465 8.9966 14.6411 8.82727 14.8091L5.45455 18.1818V15.4545C5.45455 15.2134 5.35877 14.9822 5.18828 14.8117C5.01779 14.6412 4.78656 14.5455 4.54545 14.5455C3.82214 14.5455 3.12844 14.2581 2.61698 13.7467C2.10552 13.2352 1.81818 12.5415 1.81818 11.8182V4.54545C1.81818 3.82214 2.10552 3.12844 2.61698 2.61698C3.12844 2.10552 3.82214 1.81818 4.54545 1.81818H15.4545C16.1779 1.81818 16.8716 2.10552 17.383 2.61698C17.8945 3.12844 18.1818 3.82214 18.1818 4.54545V11.8182Z" fill="#474747"/>
<path d="M5.90905 9.54545C6.66216 9.54545 7.27268 8.93493 7.27268 8.18181C7.27268 7.4287 6.66216 6.81818 5.90905 6.81818C5.15593 6.81818 4.54541 7.4287 4.54541 8.18181C4.54541 8.93493 5.15593 9.54545 5.90905 9.54545Z" fill="#474747"/>
<path d="M9.99999 9.54545C10.7531 9.54545 11.3636 8.93493 11.3636 8.18181C11.3636 7.4287 10.7531 6.81818 9.99999 6.81818C9.24687 6.81818 8.63635 7.4287 8.63635 8.18181C8.63635 8.93493 9.24687 9.54545 9.99999 9.54545Z" fill="#474747"/>
<path d="M14.0909 9.54545C14.844 9.54545 15.4546 8.93493 15.4546 8.18181C15.4546 7.4287 14.844 6.81818 14.0909 6.81818C13.3378 6.81818 12.7273 7.4287 12.7273 8.18181C12.7273 8.93493 13.3378 9.54545 14.0909 9.54545Z" fill="#474747"/>
</svg>
