<svg width="22" height="20" viewBox="0 0 22 20" fill="none" xmlns="http://www.w3.org/2000/svg">
<path d="M22 13.2655C22 10.584 19.6851 8.37431 16.7383 8.13176C16.7509 7.96762 16.7578 7.80262 16.7578 7.63663C16.7578 5.67768 15.8733 3.8421 14.267 2.46779C12.6894 1.11814 10.5983 0.374908 8.37891 0.374908C6.15948 0.374908 4.06845 1.11814 2.49086 2.46779C0.884555 3.8421 0 5.67768 0 7.63663C0 9.24344 0.61716 10.8051 1.74561 12.072L0.641309 16.3908L4.98085 14.2692C6.06079 14.6869 7.20247 14.8983 8.37891 14.8983C9.14194 14.8983 9.88986 14.8106 10.6069 14.6404C11.2897 16.8397 13.5657 18.4218 16.1992 18.4218C16.978 18.4218 17.7347 18.2847 18.4531 18.0134L21.6761 19.6251L20.8549 16.3406C21.5959 15.4546 22 14.3753 22 13.2655ZM5.20743 12.9705L4.93689 12.8558L2.58135 14.0076L3.17195 11.6973L2.91715 11.4382C1.86734 10.3694 1.28906 9.01936 1.28906 7.63663C1.28906 4.34329 4.46961 1.66397 8.37891 1.66397C12.2882 1.66397 15.4688 4.34329 15.4688 7.63663C15.4688 10.93 12.2882 13.6093 8.37891 13.6093C7.2753 13.6093 6.2083 13.3943 5.20743 12.9705ZM19.7459 17.2187L18.5006 16.5961L18.2249 16.7155C17.5858 16.9924 16.9042 17.1327 16.1992 17.1327C14.131 17.1327 12.3515 15.9271 11.837 14.2551C12.7286 13.9054 13.5508 13.4181 14.267 12.8055C15.3768 11.8559 16.1418 10.6862 16.5089 9.40776C18.8527 9.54453 20.7109 11.2223 20.7109 13.2655C20.7109 14.1568 20.3455 15.0281 19.6821 15.719L19.4352 15.9759L19.7459 17.2187Z" fill="#474747"/>
<path d="M10.3125 6.82022H11.6016V8.10928H10.3125V6.82022ZM7.73438 6.82022H9.02344V8.10928H7.73438V6.82022ZM5.15625 6.82022H6.44531V8.10928H5.15625V6.82022Z" fill="#474747"/>
</svg>
