<svg width="6" height="10" viewBox="0 0 6 10" fill="none" xmlns="http://www.w3.org/2000/svg">
<path d="M1.23034 9.90012L5.89976 5.23037C5.96655 5.16366 6 5.0869 6 5.00007C6 4.91324 5.96655 4.83634 5.89976 4.76959L1.23034 0.100236C1.16344 0.0333418 1.08669 0 0.999825 0C0.912996 0 0.836134 0.033447 0.76938 0.100236L0.268517 0.601134C0.201728 0.667923 0.168351 0.744785 0.168351 0.831614C0.168351 0.918443 0.201728 0.995304 0.268517 1.06209L4.20642 5.00007L0.268271 8.93819C0.201482 9.00494 0.168316 9.08184 0.168316 9.16853C0.168316 9.2555 0.201693 9.33236 0.268271 9.39911L0.769345 9.90008C0.836099 9.96683 0.912995 10 0.999789 10C1.08669 10 1.16355 9.96687 1.23034 9.90012Z" fill="#129C20"/>
</svg>
