<svg width="12" height="11" viewBox="0 0 12 11" fill="none" xmlns="http://www.w3.org/2000/svg">
<path d="M8.63501 2.00431L7.57351 0.185806C7.54844 0.143047 7.51516 0.105668 7.47559 0.0758185C7.43601 0.0459691 7.39093 0.024239 7.34293 0.0118782C7.29492 -0.000482484 7.24495 -0.00322981 7.19588 0.00379424C7.14681 0.0108183 7.09962 0.0274751 7.05701 0.0528064L3.81201 1.99981L8.63501 2.00431Z" fill="#129C20"/>
<path d="M1.5 2.49976C1.225 2.49976 1 2.27476 1 1.99976C1 1.72476 1.225 1.49976 1.5 1.49976H3.185L4.855 0.499756H1.5C0.76 0.499756 0.145 1.03976 0.025 1.74976C0.015 1.78976 0 1.82976 0 1.87476V9.49976C0 10.3248 0.675 10.9998 1.5 10.9998H10C10.55 10.9998 11 10.5498 11 9.99976V8.99976H9.75C8.51 8.99976 7.5 7.98976 7.5 6.74976C7.5 5.50976 8.51 4.49976 9.75 4.49976H11V3.49976C11 2.94976 10.55 2.49976 10 2.49976H1.5ZM9.5 1.49976C9.5 0.994756 9.125 0.574756 8.635 0.509756L9.5 1.99976V1.49976Z" fill="#129C20"/>
<path d="M11.625 5.24976H9.75C8.923 5.24976 8.25 5.92276 8.25 6.74976C8.25 7.57676 8.923 8.24976 9.75 8.24976H11.625C11.7245 8.24976 11.8198 8.21025 11.8902 8.13992C11.9605 8.0696 12 7.97421 12 7.87476V5.62476C12 5.5253 11.9605 5.42992 11.8902 5.35959C11.8198 5.28926 11.7245 5.24976 11.625 5.24976ZM9.75 7.24976C9.61739 7.24976 9.49021 7.19708 9.39645 7.10331C9.30268 7.00954 9.25 6.88236 9.25 6.74976C9.25 6.61715 9.30268 6.48997 9.39645 6.3962C9.49021 6.30243 9.61739 6.24976 9.75 6.24976C9.88261 6.24976 10.0098 6.30243 10.1036 6.3962C10.1973 6.48997 10.25 6.61715 10.25 6.74976C10.25 6.88236 10.1973 7.00954 10.1036 7.10331C10.0098 7.19708 9.88261 7.24976 9.75 7.24976Z" fill="#129C20"/>
</svg>
