<svg width="20" height="21" viewBox="0 0 20 21" fill="none" xmlns="http://www.w3.org/2000/svg">
<path d="M9.99996 10.0237C12.6299 10.0237 14.7618 7.89177 14.7618 5.26186C14.7618 2.63196 12.6299 0.5 9.99996 0.5C7.37006 0.5 5.2381 2.63196 5.2381 5.26186C5.2381 7.89177 7.37006 10.0237 9.99996 10.0237Z" fill="#474747"/>
<path d="M11.0095 10.9761H8.99044C7.80605 10.9798 6.634 11.2168 5.5412 11.6735C4.4484 12.1302 3.45626 12.7977 2.62142 13.6379C1.78659 14.478 1.1254 15.4744 0.675628 16.57C0.225851 17.6657 -0.00371257 18.8392 4.54024e-05 20.0236C4.54024e-05 20.1499 0.050215 20.271 0.139517 20.3603C0.228819 20.4496 0.349939 20.4998 0.476232 20.4998H19.5237C19.6559 20.4878 19.7785 20.426 19.8669 20.327C19.9553 20.228 20.0028 20.0992 19.9999 19.9665C19.9948 17.5836 19.046 15.2998 17.3611 13.6149C15.6761 11.9299 13.3923 10.9811 11.0095 10.9761Z" fill="#474747"/>
</svg>
