<svg width="20" height="20" viewBox="0 0 20 20" fill="none" xmlns="http://www.w3.org/2000/svg">
<path d="M10 0C8.02219 0 6.08879 0.58649 4.4443 1.6853C2.79981 2.78412 1.51809 4.3459 0.761209 6.17316C0.00433284 8.00043 -0.1937 10.0111 0.192152 11.9509C0.578004 13.8907 1.53041 15.6725 2.92894 17.0711C4.32746 18.4696 6.10929 19.422 8.0491 19.8078C9.98891 20.1937 11.9996 19.9957 13.8268 19.2388C15.6541 18.4819 17.2159 17.2002 18.3147 15.5557C19.4135 13.9112 20 11.9778 20 10C19.9968 7.34881 18.9422 4.80711 17.0676 2.93244C15.1929 1.05776 12.6512 0.00317571 10 0ZM10 18C8.41775 18 6.87103 17.5308 5.55544 16.6518C4.23985 15.7727 3.21447 14.5233 2.60897 13.0615C2.00347 11.5997 1.84504 9.99112 2.15372 8.43928C2.4624 6.88743 3.22433 5.46197 4.34315 4.34314C5.46197 3.22433 6.88743 2.4624 8.43928 2.15372C9.99113 1.84504 11.5997 2.00346 13.0615 2.60896C14.5233 3.21446 15.7727 4.23984 16.6518 5.55544C17.5308 6.87103 18 8.41775 18 10C17.9976 12.121 17.154 14.1544 15.6542 15.6542C14.1544 17.154 12.121 17.9976 10 18Z" fill="#129C20"/>
<path d="M10.916 4.11802C10.3967 3.9772 9.85187 3.95801 9.32393 4.06195C8.79598 4.16589 8.29911 4.39015 7.87192 4.71732C7.44472 5.04448 7.09872 5.46574 6.86078 5.94835C6.62285 6.43097 6.49939 6.96194 6.5 7.50002C6.5 7.76524 6.60536 8.01959 6.7929 8.20713C6.98043 8.39467 7.23479 8.50002 7.5 8.50002C7.76522 8.50002 8.01957 8.39467 8.20711 8.20713C8.39464 8.01959 8.5 7.76524 8.5 7.50002C8.49933 7.27066 8.55159 7.04423 8.6527 6.83835C8.75382 6.63248 8.90107 6.4527 9.083 6.31302C9.26976 6.16919 9.48748 6.07089 9.71888 6.02593C9.95028 5.98097 10.189 5.99059 10.416 6.05402C10.662 6.12194 10.8862 6.25256 11.0665 6.43311C11.2469 6.61366 11.3773 6.83795 11.445 7.08402C11.533 7.3969 11.5178 7.72982 11.4016 8.03336C11.2854 8.3369 11.0744 8.59489 10.8 8.76902C10.2633 9.08999 9.81668 9.54176 9.50191 10.0821C9.18713 10.6225 9.01445 11.2338 9 11.859V12C9 12.2652 9.10536 12.5196 9.2929 12.7071C9.48043 12.8947 9.73479 13 10 13C10.2652 13 10.5196 12.8947 10.7071 12.7071C10.8946 12.5196 11 12.2652 11 12V11.859C11.0145 11.5709 11.102 11.2913 11.2544 11.0464C11.4068 10.8014 11.619 10.5993 11.871 10.459C12.5016 10.0574 12.988 9.46551 13.2597 8.76899C13.5314 8.07246 13.5742 7.30753 13.382 6.58502C13.2243 5.99323 12.9133 5.45351 12.4803 5.02036C12.0473 4.58721 11.5077 4.27595 10.916 4.11802Z" fill="#129C20"/>
<path d="M10 16C10.5523 16 11 15.5523 11 15C11 14.4477 10.5523 14 10 14C9.44772 14 9 14.4477 9 15C9 15.5523 9.44772 16 10 16Z" fill="#129C20"/>
</svg>
