<svg width="15" height="15" viewBox="0 0 15 15" fill="none" xmlns="http://www.w3.org/2000/svg">
<path d="M14.858 14.1842L10.9851 10.3733C11.9993 9.27141 12.6225 7.81417 12.6225 6.21064C12.622 2.78038 9.79656 0 6.31098 0C2.8254 0 0 2.78038 0 6.21064C0 9.6409 2.8254 12.4213 6.31098 12.4213C7.81699 12.4213 9.19827 11.9004 10.2833 11.0344L14.1711 14.8603C14.3605 15.0469 14.6681 15.0469 14.8575 14.8603C14.9026 14.8163 14.9384 14.7638 14.9629 14.7057C14.9873 14.6477 15 14.5854 15 14.5224C15 14.4594 14.9875 14.397 14.9631 14.339C14.9387 14.2809 14.903 14.2283 14.858 14.1842ZM6.31098 11.4657C3.3618 11.4657 0.971033 9.11295 0.971033 6.21064C0.971033 3.30832 3.3618 0.955543 6.31098 0.955543C9.26018 0.955543 11.6509 3.30832 11.6509 6.21064C11.6509 9.11295 9.26018 11.4657 6.31098 11.4657Z" fill="#9F9F9F"/>
</svg>
