<svg width="50" height="32" viewBox="0 0 50 32" fill="none" xmlns="http://www.w3.org/2000/svg">
<path d="M34.0909 0H15.9091C11.6897 6.28733e-08 7.6432 1.67613 4.65966 4.65967C1.67613 7.6432 0 11.6897 0 15.9091C0 20.1284 1.67613 24.175 4.65966 27.1585C7.6432 30.1421 11.6897 31.8182 15.9091 31.8182H34.0909C38.3103 31.8182 42.3568 30.1421 45.3403 27.1585C48.3239 24.175 50 20.1284 50 15.9091C50 11.6897 48.3239 7.6432 45.3403 4.65967C42.3568 1.67613 38.3103 6.28733e-08 34.0909 0ZM15.9091 25C14.1111 25 12.3534 24.4668 10.8585 23.4679C9.36346 22.469 8.19826 21.0492 7.51019 19.388C6.82212 17.7269 6.64209 15.899 6.99286 14.1355C7.34364 12.3721 8.20946 10.7522 9.48085 9.48085C10.7522 8.20946 12.3721 7.34364 14.1355 6.99286C15.899 6.64209 17.7269 6.82212 19.388 7.51019C21.0492 8.19826 22.469 9.36346 23.4679 10.8585C24.4668 12.3534 25 14.1111 25 15.9091C25 18.3202 24.0422 20.6325 22.3373 22.3373C20.6325 24.0422 18.3202 25 15.9091 25Z" fill="#129C20"/>
</svg>
