<svg width="40" height="40" viewBox="0 0 40 40" fill="none" xmlns="http://www.w3.org/2000/svg">
<path d="M30.4107 26.4608C29.1039 25.1706 27.4725 25.1706 26.174 26.4608C25.1835 27.443 24.193 28.4252 23.2191 29.424C22.9527 29.6987 22.728 29.7569 22.4034 29.5738C21.7625 29.2242 21.0799 28.9412 20.464 28.5583C17.5923 26.7521 15.1868 24.4298 13.0559 21.8162C11.9988 20.5177 11.0583 19.1277 10.4007 17.5628C10.2675 17.2465 10.2925 17.0385 10.5505 16.7804C11.541 15.8232 12.5066 14.841 13.4804 13.8588C14.8372 12.4938 14.8372 10.8956 13.4721 9.52222C12.698 8.7398 11.9239 7.97403 11.1498 7.19161C10.3508 6.39254 9.56002 5.58515 8.75263 4.79441C7.44582 3.52089 5.81439 3.52089 4.51591 4.80273C3.51707 5.78492 2.55986 6.79208 1.54438 7.75762C0.603806 8.64824 0.12936 9.73864 0.0294763 11.0122C-0.128672 13.0847 0.379068 15.0408 1.0949 16.9469C2.55986 20.8923 4.79059 24.3965 7.49577 27.6095C11.1498 31.9544 15.5114 35.392 20.6138 37.8725C22.9111 38.9878 25.2917 39.8452 27.8803 39.9867C29.6616 40.0866 31.2098 39.6371 32.45 38.247C33.299 37.2982 34.2562 36.4325 35.1552 35.5252C36.4869 34.1768 36.4953 32.5454 35.1718 31.2136C33.5903 29.6238 32.0005 28.0423 30.4107 26.4608ZM28.8209 19.8269L31.8923 19.3025C31.4095 16.4808 30.0778 13.9254 28.0551 11.8945C25.9159 9.75529 23.2108 8.40686 20.2309 7.99068L19.7981 11.0787C22.1037 11.4034 24.2013 12.4438 25.8577 14.1002C27.4225 15.6651 28.4463 17.6461 28.8209 19.8269ZM33.6236 6.47578C30.0778 2.92992 25.5913 0.690861 20.6388 0L20.2059 3.08806C24.4843 3.68736 28.3631 5.62677 31.4262 8.68154C34.3311 11.5865 36.2372 15.2572 36.9281 19.2942L39.9995 18.7698C39.1921 14.0919 36.9864 9.84685 33.6236 6.47578Z" fill="#129C20" fill-opacity="0.64"/>
</svg>
