<svg width="50" height="42" viewBox="0 0 50 42" fill="none" xmlns="http://www.w3.org/2000/svg">
<path d="M8.78906 30.7617C8.78906 28.3385 6.81777 26.3672 4.39453 26.3672C1.97129 26.3672 0 28.3385 0 30.7617V32.2266H8.78906V30.7617ZM4.39453 41.0156C6.81777 41.0156 8.78906 39.0443 8.78906 36.6211V35.1562H0V36.6211C0 39.0443 1.97129 41.0156 4.39453 41.0156Z" fill="#129C20"/>
<path d="M45.6055 14.6484H43.8708C43.2641 12.9471 41.6533 11.7188 39.7461 11.7188C37.8389 11.7188 36.2281 12.9471 35.6214 14.6484H33.8867C31.4635 14.6484 29.4922 16.6197 29.4922 19.043V20.5078H32.4219V19.043C32.4219 18.2348 33.0799 17.5781 33.8867 17.5781H35.6214C35.8399 18.1909 36.1919 18.7474 36.6519 19.2075C37.1119 19.6675 37.6685 20.0195 38.2812 20.238V23.4375H36.8164C34.9092 23.4375 33.2984 24.6658 32.6917 26.3672H26.5625V20.5078H5.85938V23.5857C9.19912 24.2663 11.7188 27.225 11.7188 30.7617V35.1562H47.0703V27.832C47.0703 25.4088 45.099 23.4375 42.6758 23.4375H41.2109V20.238C41.8237 20.0195 42.3803 19.6675 42.8403 19.2075C43.3003 18.7474 43.6523 18.1909 43.8708 17.5781H45.6055C46.4123 17.5781 47.0703 18.2348 47.0703 19.043V20.5078H50V19.043C50 16.6197 48.0287 14.6484 45.6055 14.6484ZM23.5352 29.2969H14.7461V26.3672H23.5352V29.2969ZM26.5625 32.2266V29.2969H32.4219V32.2266H26.5625Z" fill="#129C20"/>
<path d="M23.6328 2.92969H2.92969V5.85938H5.85938V11.7188H2.92969V8.78906H0V17.5781H2.92969V14.6484H5.85938V17.5781H26.5625V2.92969H50V0H23.6328V2.92969ZM43.8708 38.0859H35.6214C36.2281 39.7873 37.8389 41.0156 39.7461 41.0156C41.6533 41.0156 43.2641 39.7873 43.8708 38.0859Z" fill="#129C20"/>
</svg>
