<svg width="67" height="61" viewBox="0 0 67 61" fill="none" xmlns="http://www.w3.org/2000/svg">
<path fill-rule="evenodd" clip-rule="evenodd" d="M11.3229 28.4891C6.695 25.5703 3.72221 21.0355 3.72221 15.9432C3.72221 7.13801 12.6102 0 23.5741 0C30.4998 0 36.5973 2.8483 40.1492 7.16589C46.5674 8.02018 52.2185 11.159 56.1703 15.6932C62.4203 17.0918 67 21.6396 67 27.0341C67 30.7254 64.8556 34.0203 61.499 36.181C61.3259 36.9711 61.1124 37.7471 60.8609 38.507C64.4846 40.372 67 44.4657 67 49.2159C67 55.7241 62.2783 61 56.4537 61C51.9811 61 48.1587 57.889 46.6253 53.498C43.5495 54.7572 40.1611 55.4545 36.6018 55.4545C32.2663 55.4545 28.184 54.4198 24.6118 52.5952C22.0032 54.377 18.605 55.4546 14.8889 55.4546C6.66598 55.4546 0 50.1786 0 43.6705C0 38.1728 4.75672 33.5544 11.1905 32.2528C11.1747 31.9015 11.1667 31.5482 11.1667 31.1932C11.1667 30.2791 11.2197 29.3769 11.3229 28.4891Z" fill="#129C20" fill-opacity="0.2"/>
</svg>
