<svg width="200" height="200" viewBox="0 0 200 200" fill="none" xmlns="http://www.w3.org/2000/svg">
<path d="M99.9996 95.2373C126.299 95.2373 147.618 73.9177 147.618 47.6186C147.618 21.3196 126.299 0 99.9996 0C73.7006 0 52.381 21.3196 52.381 47.6186C52.381 73.9177 73.7006 95.2373 99.9996 95.2373Z" fill="white"/>
<path d="M110.095 104.761H89.9044C78.0605 104.798 66.34 107.168 55.412 111.735C44.484 116.303 34.5626 122.977 26.2142 131.379C17.8659 139.78 11.254 149.744 6.75628 160.7C2.25851 171.657 -0.0371257 183.392 0.000454024 195.236C0.000454024 196.499 0.50215 197.711 1.39517 198.604C2.28819 199.497 3.49939 199.998 4.76232 199.998H195.237C196.559 199.878 197.785 199.26 198.669 198.27C199.553 197.28 200.028 195.992 199.999 194.665C199.948 170.836 190.46 147.998 173.611 131.149C156.761 114.299 133.923 104.811 110.095 104.761Z" fill="white"/>
</svg>
