<svg width="15" height="15" viewBox="0 0 15 15" fill="none" xmlns="http://www.w3.org/2000/svg">
<path d="M7.5 0C3.35718 0 0 3.35817 0 7.49851C0 11.6413 3.35718 14.998 7.5 14.998C11.6428 14.998 15 11.6418 15 7.49851C15 3.35817 11.6423 0 7.5 0ZM6.37384 11.9685C6.29324 12.0485 6.18429 12.0934 6.07073 12.0934C5.95718 12.0934 5.84822 12.0485 5.76763 11.9685L5.6333 11.8341L5.48708 11.6889L4.85956 11.0614L4.84965 11.047L1.97128 8.14685C1.93142 8.10723 1.89978 8.06012 1.87819 8.00823C1.85661 7.95634 1.84549 7.90069 1.84549 7.84449C1.84549 7.78829 1.85661 7.73264 1.87819 7.68075C1.89978 7.62886 1.93142 7.58175 1.97128 7.54213L2.87836 6.63505C2.91799 6.59511 2.96513 6.56342 3.01707 6.54178C3.069 6.52015 3.12471 6.50901 3.18097 6.50901C3.23723 6.50901 3.29294 6.52015 3.34487 6.54178C3.39681 6.56342 3.44395 6.59511 3.48358 6.63505L6.07346 9.24327L11.5159 3.79982C11.5556 3.76008 11.6027 3.72856 11.6545 3.70706C11.7063 3.68555 11.7619 3.67448 11.818 3.67448C11.8742 3.67448 11.9297 3.68555 11.9816 3.70706C12.0334 3.72856 12.0805 3.76008 12.1202 3.79982L13.0272 4.70788C13.067 4.74758 13.0986 4.79474 13.1202 4.84667C13.1418 4.8986 13.1529 4.95427 13.1529 5.01049C13.1529 5.06672 13.1418 5.12239 13.1202 5.17432C13.0986 5.22624 13.067 5.27341 13.0272 5.3131L6.37384 11.9685Z" fill="#129C20"/>
</svg>
