<svg width="50" height="42" viewBox="0 0 50 42" fill="none" xmlns="http://www.w3.org/2000/svg">
<path fill-rule="evenodd" clip-rule="evenodd" d="M44.2536 28.6113C44.9826 28.6113 45.6818 28.901 46.1973 29.4165C46.7128 29.932 47.0024 30.6311 47.0024 31.3602C47.0024 32.0892 46.7128 32.7884 46.1973 33.3039C45.6818 33.8194 44.9826 34.109 44.2536 34.109C43.5248 34.1084 42.826 33.8186 42.3108 33.3032C41.7955 32.7878 41.5059 32.089 41.5055 31.3602C41.5053 30.9992 41.5762 30.6417 41.7143 30.3082C41.8523 29.9746 42.0547 29.6716 42.3099 29.4163C42.5651 29.161 42.8682 28.9585 43.2017 28.8204C43.5352 28.6823 43.8926 28.6113 44.2536 28.6113ZM5.74138 28.6113C6.47041 28.6113 7.16959 28.901 7.68509 29.4165C8.20059 29.932 8.4902 30.6311 8.4902 31.3602C8.4902 32.0892 8.20059 32.7884 7.68509 33.3039C7.16959 33.8194 6.47041 34.109 5.74138 34.109C5.01259 34.1084 4.31383 33.8186 3.79856 33.3032C3.2833 32.7878 2.99367 32.089 2.99328 31.3602C2.993 30.9992 3.06388 30.6417 3.20188 30.3081C3.33988 29.9745 3.54228 29.6714 3.79751 29.4161C4.05274 29.1608 4.35579 28.9583 4.68934 28.8202C5.02289 28.6821 5.38038 28.6112 5.74138 28.6113ZM14.4933 20.9049H35.5067C36.0826 20.9049 36.2106 21.6908 35.9475 22.4508C35.3859 24.0535 33.9479 25.1284 32.4846 25.1284H17.5154C16.0507 25.1284 14.6127 24.0535 14.0511 22.4508C13.7851 21.6908 13.9159 20.9049 14.4933 20.9049ZM44.1234 18.9197C44.2608 18.9118 44.396 18.9161 44.5304 18.9261C45.5011 18.9988 46.3028 19.474 46.6285 20.5446C47.1858 22.3717 45.7743 24.4993 43.8761 24.4993H41.0813C39.0896 24.4993 38.5798 23.1475 38.899 22.1891C39.4074 20.6532 42.0361 18.9873 44.1234 18.9197ZM5.87584 18.9197C7.95812 18.9873 10.5905 20.6532 11.1002 22.1891C11.4188 23.1475 10.909 24.4993 8.91658 24.4993H6.12318C4.22425 24.4993 2.80922 22.3717 3.37077 20.5446C3.69649 19.4733 4.4982 18.998 5.46744 18.9261C5.6033 18.9153 5.73971 18.9131 5.87584 18.9197ZM24.9975 2.49506C28.2108 2.49866 31.6822 2.61874 34.6187 2.83516C35.731 2.91785 36.7492 3.56137 37.4344 4.75639L41.041 12.4075C41.041 12.4075 31.8354 13.3961 24.9975 13.3961C18.1625 13.3961 8.95397 12.4075 8.95397 12.4075L12.5606 4.75639C13.2458 3.56137 14.2683 2.91785 15.3806 2.83516C18.3171 2.61802 21.7885 2.49794 24.9975 2.49506ZM24.9975 6.06114e-05C20.71 6.06114e-05 18.811 -0.0179141 14.6206 0.565212C12.6799 0.834845 11.28 1.88749 10.5272 3.29965L6.88678 10.1605H2.19517C1.15043 10.1605 0.524167 11.2017 0.798114 12.209C1.09723 13.325 1.43445 13.8757 3.07453 14.2525L4.59095 14.6055C3.9956 15.4058 3.34417 16.2938 2.66973 17.1775C1.43373 18.7996 0 21.3837 0 23.8629V31.9023C0 33.5582 0.442198 34.951 1.77526 35.4715V40.1006C1.77479 40.3145 1.81663 40.5264 1.89839 40.7241C1.98014 40.9218 2.1002 41.1014 2.25163 41.2525C2.40307 41.4036 2.5829 41.5232 2.78077 41.6045C2.97864 41.6859 3.19064 41.7272 3.40457 41.7263H8.02212C8.23624 41.7273 8.44846 41.6861 8.64657 41.6048C8.84468 41.5236 9.02479 41.404 9.17653 41.2529C9.32827 41.1018 9.44866 40.9223 9.53077 40.7245C9.61289 40.5267 9.65511 40.3147 9.65501 40.1006V37.4014C9.65501 36.2991 9.77869 35.1278 10.2238 33.9745C11.4864 30.6936 13.1293 28.323 16.0054 28.323H33.9924C36.8685 28.323 38.5086 30.6944 39.7755 33.9745C40.2163 35.1278 40.3443 36.2991 40.3443 37.4014V40.1006C40.3438 40.3145 40.3856 40.5264 40.4674 40.7241C40.5491 40.9218 40.6692 41.1014 40.8206 41.2525C40.9721 41.4036 41.1519 41.5232 41.3498 41.6045C41.5476 41.6859 41.7596 41.7272 41.9736 41.7263H46.5954C46.8093 41.7271 47.0213 41.6857 47.2191 41.6044C47.4169 41.523 47.5967 41.4033 47.7482 41.2523C47.8996 41.1012 48.0196 40.9216 48.1014 40.724C48.1832 40.5264 48.2251 40.3145 48.2247 40.1006V35.4715C49.5535 34.951 50 33.5575 50 31.9023V23.8629C50 21.3837 48.562 18.7996 47.3288 17.1775C46.6544 16.2938 46.003 15.4058 45.4076 14.6055L46.924 14.2525C48.5641 13.8757 48.9013 13.325 49.2019 12.209C49.4715 11.2017 48.8496 10.1605 47.8048 10.1605H43.1132L39.4692 3.29965C38.7207 1.88821 37.3194 0.834845 35.3794 0.565212C31.1875 -0.0179141 29.2893 6.06114e-05 24.9975 6.06114e-05Z" fill="#129C20"/>
<path fill-rule="evenodd" clip-rule="evenodd" d="M16.0054 30.6857C14.0957 30.6857 13.2077 32.1087 12.1263 34.9294C11.8142 35.7455 11.8905 37.2065 12.6569 37.607H37.3395C38.1038 37.2065 38.1793 35.7455 37.8672 34.9294C36.7887 32.1087 35.9014 30.6857 33.9881 30.6857H16.0054Z" fill="#129C20"/>
</svg>
